<svg width="42" height="42" viewBox="0 0 42 42" fill="none" xmlns="http://www.w3.org/2000/svg">
<path d="M11.0781 30.421C11.0781 31.3807 11.8615 32.1641 12.8254 32.1641H14.8228V37.1024C14.8228 38.3534 15.8277 39.3747 17.0623 39.3747C18.301 39.3747 19.3017 38.3575 19.3017 37.1024V32.16H22.7881V37.0983C22.7881 38.3493 23.793 39.3706 25.0275 39.3706C26.2662 39.3706 27.267 38.3534 27.267 37.0983V32.16H29.2644C30.2283 32.16 31.0117 31.3766 31.0117 30.4169V14.2075H11.0781V30.421ZM25.7248 5.80749L27.5664 3.14148C27.673 2.98562 27.6484 2.77644 27.5049 2.6739C27.3613 2.57546 27.1562 2.62468 27.0496 2.78054L25.1383 5.5532C23.8791 5.05691 22.4764 4.7821 21.0039 4.7821C19.5314 4.7821 18.1287 5.05691 16.8695 5.5532L14.9582 2.78464C14.8516 2.62878 14.6465 2.57546 14.5029 2.678C14.3594 2.77644 14.3348 2.98152 14.4414 3.14558L16.283 5.81159C13.3545 7.17331 11.3037 9.75319 11.0412 12.7678H30.9748C30.7041 9.74909 28.6492 7.16921 25.7248 5.80749ZM16.7957 10.0116C16.5775 10.0116 16.3642 9.94688 16.1827 9.82565C16.0013 9.70442 15.8599 9.5321 15.7764 9.3305C15.6929 9.12889 15.671 8.90705 15.7136 8.69303C15.7561 8.479 15.8612 8.28241 16.0155 8.12811C16.1698 7.97381 16.3664 7.86873 16.5804 7.82615C16.7945 7.78358 17.0163 7.80543 17.2179 7.88894C17.4195 7.97245 17.5918 8.11386 17.7131 8.2953C17.8343 8.47674 17.899 8.69006 17.899 8.90827C17.8983 9.20066 17.7818 9.48085 17.575 9.6876C17.3683 9.89435 17.0881 10.0108 16.7957 10.0116ZM25.3433 10.0116C25.1251 10.0116 24.9118 9.94688 24.7304 9.82565C24.5489 9.70442 24.4075 9.5321 24.324 9.3305C24.2405 9.12889 24.2187 8.90705 24.2612 8.69303C24.3038 8.479 24.4089 8.28241 24.5632 8.12811C24.7175 7.97381 24.9141 7.86873 25.1281 7.82615C25.3421 7.78358 25.564 7.80543 25.7656 7.88894C25.9672 7.97245 26.1395 8.11386 26.2607 8.2953C26.382 8.47674 26.4467 8.69006 26.4467 8.90827C26.4459 9.20066 26.3294 9.48085 26.1227 9.6876C25.9159 9.89435 25.6357 10.0108 25.3433 10.0116ZM34.5062 14.1419C33.2676 14.1419 32.2668 15.1591 32.2668 16.4141V25.2899C32.2668 26.5409 33.2717 27.5622 34.5062 27.5622C35.7449 27.5622 36.7457 26.545 36.7457 25.2899V16.41C36.7498 15.155 35.749 14.1419 34.5062 14.1419ZM7.49336 14.1419C6.25469 14.1419 5.25391 15.1591 5.25391 16.4141V25.2899C5.25391 26.5409 6.25879 27.5622 7.49336 27.5622C8.73203 27.5622 9.73281 26.545 9.73281 25.2899V16.41C9.73281 15.155 8.72793 14.1419 7.49336 14.1419Z" fill="black"/>
</svg>
