<svg width="32" height="40" viewBox="0 0 32 40" fill="none" xmlns="http://www.w3.org/2000/svg">
<g clip-path="url(#clip0_21_3887)">
<path d="M30.9818 13.636C30.7538 13.816 26.7283 16.124 26.7283 21.256C26.7283 27.192 31.8506 29.292 32.0039 29.344C31.9803 29.472 31.1902 32.22 29.3032 35.02C27.6206 37.484 25.8634 39.944 23.1902 39.944C20.517 39.944 19.829 38.364 16.743 38.364C13.7356 38.364 12.6663 39.996 10.2211 39.996C7.77592 39.996 6.06978 37.716 4.10811 34.916C1.83587 31.628 0 26.52 0 21.672C0 13.896 4.96904 9.772 9.85946 9.772C12.458 9.772 14.6241 11.508 16.2555 11.508C17.8084 11.508 20.23 9.668 23.1862 9.668C24.3066 9.668 28.3322 9.772 30.9818 13.636ZM21.7828 6.376C23.0054 4.9 23.8703 2.852 23.8703 0.804C23.8703 0.52 23.8467 0.232 23.7956 0C21.8064 0.076 19.4398 1.348 18.0128 3.032C16.8924 4.328 15.8467 6.376 15.8467 8.452C15.8467 8.764 15.8978 9.076 15.9214 9.176C16.0472 9.2 16.2516 9.228 16.456 9.228C18.2408 9.228 20.4855 8.012 21.7828 6.376Z" fill="black"/>
</g>
<defs>
<clipPath id="clip0_21_3887">
<rect width="32" height="40" fill="white"/>
</clipPath>
</defs>
</svg>
