<svg width="37" height="37" viewBox="0 0 37 37" fill="none" xmlns="http://www.w3.org/2000/svg">
<path d="M35.0806 28.4319L24.9182 18.2673L34.3488 8.83563C36.132 7.05351 36.1314 4.16268 34.3488 2.38001C32.5666 0.59789 29.6764 0.597891 27.8937 2.38056L18.4621 11.8122L8.5689 1.91796C6.78569 0.13584 3.89541 0.135839 2.11329 1.91796C0.331715 3.70172 0.331167 6.59036 2.11383 8.37303L12.0075 18.2667L1.38089 28.8934C-0.403416 30.6777 -0.401779 33.5663 1.38089 35.349C3.16356 37.1316 6.05329 37.1311 7.83541 35.3501L18.4631 24.7223L28.6277 34.8869C30.4093 36.6685 33.299 36.669 35.0806 34.8875C36.866 33.1054 36.8644 30.2134 35.0806 28.4319Z" fill="black"/>
</svg>
