<svg width="61" height="61" viewBox="0 0 61 61" fill="none" xmlns="http://www.w3.org/2000/svg">
<path d="M40.2713 22.8069L26.6497 29.6666C26.4496 29.7675 26.2871 29.9298 26.1864 30.1299L19.3266 43.7517C19.1237 44.1545 19.2021 44.6419 19.5211 44.9607C19.7217 45.1613 19.9892 45.2668 20.2604 45.2668C20.4199 45.2668 20.5809 45.2303 20.7301 45.1552L34.3518 38.2955C34.5518 38.1947 34.7143 38.0323 34.815 37.8322L41.6747 24.2106C41.8776 23.8078 41.7991 23.3204 41.4802 23.0016C41.1614 22.6826 40.6743 22.6042 40.2713 22.8069ZM27.4028 32.3611L32.1204 37.0787L22.6169 41.8646L27.4028 32.3611ZM33.5984 35.6009L28.8807 30.8833L38.3843 26.0974L33.5984 35.6009Z" fill="#10C5BD"/>
<path d="M47.016 22.9361C47.4012 23.1897 47.9175 23.165 48.2705 22.8653C48.5952 22.5897 48.7224 22.1313 48.5835 21.7283C48.446 21.3294 48.0702 21.0468 47.6488 21.0248C47.2045 21.0017 46.7845 21.2742 46.6228 21.6879C46.4468 22.1375 46.6115 22.6697 47.016 22.9361Z" fill="#10C5BD"/>
<path d="M50.6217 25.2469C50.3923 24.7176 49.7771 24.4744 49.2472 24.704C48.7177 24.9337 48.4747 25.5491 48.7043 26.0786C49.6531 28.2662 50.191 30.5836 50.3131 32.935H46.552C45.9749 32.935 45.507 33.4029 45.507 33.9801C45.507 34.5572 45.9749 35.0251 46.552 35.0251H50.3109C50.266 35.8643 50.1713 36.7042 50.0194 37.5408C49.2975 41.5186 47.3989 45.1381 44.529 48.0082C40.9267 51.6104 36.2723 53.5342 31.5459 53.7813V50.0315C31.5459 49.4543 31.078 48.9864 30.5009 48.9864C29.9238 48.9864 29.4559 49.4543 29.4559 50.0315V53.7813C24.7293 53.5342 20.0749 51.6104 16.4727 48.0082C12.9731 44.5086 10.9426 39.9315 10.6895 35.0251H14.4495C15.0266 35.0251 15.4945 34.5572 15.4945 33.9801C15.4945 33.4029 15.0266 32.935 14.4495 32.935H10.6894C10.9423 28.0286 12.9728 23.4515 16.4725 19.9517C19.9661 16.4581 24.5499 14.4238 29.4557 14.1694V17.9287C29.4557 18.5058 29.9236 18.9737 30.5008 18.9737C31.0779 18.9737 31.5458 18.5058 31.5458 17.9287V14.169C36.2822 14.4129 40.7333 16.3224 44.1893 19.6199C44.6069 20.0183 45.2684 20.0028 45.6668 19.5852C46.0652 19.1677 46.0497 18.5061 45.6321 18.1077C41.4729 14.1393 36.0115 11.9881 30.2572 12.0522C24.4923 12.1158 19.072 14.3964 14.9946 18.4736C6.44451 27.0237 6.44451 40.9357 14.9946 49.4857C19.2696 53.7607 24.8851 55.8982 30.5006 55.8982C36.1161 55.8982 41.7317 53.7607 46.0066 49.4857C49.1789 46.3134 51.2775 42.312 52.0757 37.9137C52.8554 33.6179 52.3526 29.2378 50.6217 25.2469Z" fill="#10C5BD"/>
<path d="M34.1425 7.20744C34.6971 6.45628 35.0256 5.52872 35.0256 4.5255C35.0256 2.03013 32.9954 0 30.5 0C28.0045 0 25.9743 2.03013 25.9743 4.5255C25.9743 5.52872 26.3029 6.45628 26.8575 7.20744C13.6754 8.99178 3.48047 20.3172 3.48047 33.9805C3.48047 48.879 15.6013 61 30.5 61C45.3987 61 57.5194 48.8791 57.5194 33.9805C57.5194 20.3172 47.3246 8.99178 34.1425 7.20744ZM28.0644 4.5255C28.0644 3.18258 29.1569 2.09004 30.5 2.09004C31.8429 2.09004 32.9354 3.18258 32.9354 4.5255C32.9354 5.86842 31.8429 6.96096 30.5 6.96096C29.1569 6.9611 28.0644 5.86856 28.0644 4.5255ZM30.5 58.91C16.7539 58.91 5.57051 47.7267 5.57051 33.9805C5.57051 20.2343 16.7539 9.05114 30.5 9.05114C44.2461 9.05114 55.4293 20.2344 55.4293 33.9805C55.4293 47.7266 44.2461 58.91 30.5 58.91Z" fill="#10C5BD"/>
</svg>
