<svg width="60" height="56" viewBox="0 0 60 56" fill="none" xmlns="http://www.w3.org/2000/svg">
<path d="M54.072 0.534844L19.93 0.464844C16.66 0.464844 14 3.12484 14 6.39484V11.5188L5.93 11.5358C2.66 11.5358 0 14.1958 0 17.4658V38.6068C0 41.8768 2.66 44.5368 5.929 44.5368H12V54.5368C12 54.9498 12.254 55.3208 12.639 55.4698C12.757 55.5158 12.879 55.5368 13 55.5368C13.276 55.5368 13.547 55.4228 13.74 55.2098L23.444 44.5348L40.07 44.4668C43.34 44.4668 46 41.8068 46 38.5368V38.4238L51.26 44.2098C51.453 44.4228 51.724 44.5368 52 44.5368C52.121 44.5368 52.243 44.5158 52.36 44.4698C52.746 44.3218 53 43.9498 53 43.5368V33.5368H54.07C57.34 33.5368 60 30.8768 60 27.6068V6.46484C60 3.19484 57.341 0.535844 54.072 0.534844ZM44 38.5348C44 40.7018 42.237 42.4648 40.066 42.4648L22.996 42.5348C22.715 42.5358 22.449 42.6548 22.26 42.8618L14 51.9478V43.5348C14 42.9818 13.552 42.5348 13 42.5348H5.929C3.763 42.5348 2 40.7718 2 38.6048V17.4648C2 15.2978 3.763 13.5348 5.932 13.5348L15 13.5158H15.002L39.872 13.4648H40.07C42.237 13.4648 44 15.2278 44 17.3948V35.8348V38.5348ZM58 27.6048C58 29.7718 56.237 31.5348 54.07 31.5348H52C51.447 31.5348 51 31.9818 51 32.5348V40.9478L46 35.4478V17.3948V17.3938C46 14.1238 43.34 11.4648 40.069 11.4648H39.965L16 11.5138V6.39384C16 4.22684 17.763 2.46384 19.928 2.46384L54.069 2.53384C54.07 2.53384 54.07 2.53384 54.071 2.53384C56.238 2.53384 58.001 4.29684 58.001 6.46384V27.6048H58Z" fill="url(#paint0_linear_21_4413)"/>
<path d="M12 24.4492C9.794 24.4492 8 26.2432 8 28.4492C8 30.6552 9.794 32.4492 12 32.4492C14.206 32.4492 16 30.6552 16 28.4492C16 26.2432 14.206 24.4492 12 24.4492ZM12 30.4492C10.897 30.4492 10 29.5522 10 28.4492C10 27.3462 10.897 26.4492 12 26.4492C13.103 26.4492 14 27.3462 14 28.4492C14 29.5522 13.103 30.4492 12 30.4492Z" fill="url(#paint1_linear_21_4413)"/>
<path d="M23 24.4492C20.794 24.4492 19 26.2432 19 28.4492C19 30.6552 20.794 32.4492 23 32.4492C25.206 32.4492 27 30.6552 27 28.4492C27 26.2432 25.206 24.4492 23 24.4492ZM23 30.4492C21.897 30.4492 21 29.5522 21 28.4492C21 27.3462 21.897 26.4492 23 26.4492C24.103 26.4492 25 27.3462 25 28.4492C25 29.5522 24.103 30.4492 23 30.4492Z" fill="url(#paint2_linear_21_4413)"/>
<path d="M34 24.4492C31.794 24.4492 30 26.2432 30 28.4492C30 30.6552 31.794 32.4492 34 32.4492C36.206 32.4492 38 30.6552 38 28.4492C38 26.2432 36.206 24.4492 34 24.4492ZM34 30.4492C32.897 30.4492 32 29.5522 32 28.4492C32 27.3462 32.897 26.4492 34 26.4492C35.103 26.4492 36 27.3462 36 28.4492C36 29.5522 35.103 30.4492 34 30.4492Z" fill="url(#paint3_linear_21_4413)"/>
<defs>
<linearGradient id="paint0_linear_21_4413" x1="-1.5" y1="24.5" x2="74.5" y2="43" gradientUnits="userSpaceOnUse">
<stop stop-color="#10C5BD"/>
<stop offset="1" stop-color="#0E97B8"/>
</linearGradient>
<linearGradient id="paint1_linear_21_4413" x1="7.8" y1="27.9407" x2="18.0234" y2="30.2249" gradientUnits="userSpaceOnUse">
<stop stop-color="#10C5BD"/>
<stop offset="1" stop-color="#0E97B8"/>
</linearGradient>
<linearGradient id="paint2_linear_21_4413" x1="18.8" y1="27.9407" x2="29.0234" y2="30.2249" gradientUnits="userSpaceOnUse">
<stop stop-color="#10C5BD"/>
<stop offset="1" stop-color="#0E97B8"/>
</linearGradient>
<linearGradient id="paint3_linear_21_4413" x1="29.8" y1="27.9407" x2="40.0234" y2="30.2249" gradientUnits="userSpaceOnUse">
<stop stop-color="#10C5BD"/>
<stop offset="1" stop-color="#0E97B8"/>
</linearGradient>
</defs>
</svg>
