<svg width="60" height="60" viewBox="0 0 60 60" fill="none" xmlns="http://www.w3.org/2000/svg">
<g clip-path="url(#clip0_21_4432)">
<rect width="60" height="60" fill="url(#paint0_linear_21_4432)"/>
<g clip-path="url(#clip1_21_4432)">
<path d="M54.9943 26.1493C54.9914 26.1208 54.9867 26.0931 54.9818 26.0654C54.98 26.0557 54.9793 26.0458 54.9773 26.0361C54.9706 26.0026 54.9619 25.9698 54.9524 25.9374C54.9512 25.9336 54.9506 25.9298 54.9495 25.9257C54.9394 25.8928 54.9275 25.8606 54.9148 25.829C54.9134 25.8255 54.9124 25.8219 54.911 25.8185C54.8987 25.7887 54.8845 25.7597 54.8697 25.7313C54.867 25.7259 54.8647 25.7204 54.8621 25.7152C54.8484 25.6896 54.8331 25.6651 54.8177 25.6407C54.8126 25.6329 54.8084 25.6246 54.8031 25.6168C54.7886 25.5949 54.7721 25.5742 54.7562 25.5534C54.7489 25.5441 54.7425 25.5342 54.735 25.5251C54.7161 25.5021 54.6955 25.4803 54.6751 25.4589C54.6694 25.453 54.6643 25.4466 54.6586 25.4408L31.5595 2.3418C31.5435 2.32583 31.5264 2.31183 31.51 2.29695C31.4983 2.28656 31.4873 2.27552 31.4751 2.26567C31.4567 2.25036 31.4373 2.23691 31.4182 2.22302C31.4065 2.21448 31.3954 2.20552 31.3833 2.19742C31.3639 2.18452 31.3438 2.17303 31.324 2.16133C31.3111 2.15367 31.2984 2.14558 31.285 2.13847C31.2661 2.12819 31.2466 2.11955 31.227 2.11047C31.2119 2.10336 31.1969 2.09581 31.1814 2.08925C31.1632 2.08181 31.1447 2.07558 31.1259 2.06902C31.1084 2.06267 31.091 2.056 31.0733 2.05053C31.0554 2.04517 31.0372 2.04123 31.0193 2.03664C31.0003 2.03183 30.9814 2.02647 30.9623 2.02264C30.9425 2.0187 30.9226 2.01641 30.9028 2.01356C30.8848 2.01083 30.8672 2.00766 30.849 2.0058C30.8164 2.00263 30.7836 2.00131 30.7508 2.00088C30.7453 2.00088 30.7398 2 30.734 2C30.7256 2 30.7176 2.00109 30.7092 2.00131C30.6793 2.00186 30.6495 2.00295 30.6198 2.00591C30.5986 2.00788 30.5782 2.0117 30.5574 2.01488C30.5409 2.01739 30.5239 2.01936 30.507 2.02253C30.4844 2.02702 30.4622 2.03314 30.4402 2.03883C30.4257 2.04266 30.411 2.04572 30.3967 2.04998C30.3747 2.05666 30.3536 2.06453 30.3324 2.07252C30.3178 2.07777 30.3032 2.08258 30.2889 2.08838C30.2685 2.0968 30.2489 2.10653 30.2291 2.11605C30.2146 2.12305 30.1997 2.1295 30.1854 2.13716C30.1658 2.14755 30.1471 2.15947 30.1282 2.17095C30.1145 2.17927 30.1006 2.18692 30.0874 2.19578C30.0654 2.21033 30.0446 2.22652 30.0238 2.24248C30.0145 2.2497 30.0047 2.25616 29.9956 2.26359C29.9648 2.28875 29.9351 2.31544 29.9071 2.34366L-0.658202 32.9094C-0.659406 32.9106 -0.660171 32.9117 -0.661156 32.9127C-0.686968 32.9386 -0.711578 32.9657 -0.734765 32.9939C-0.741437 33.0019 -0.746906 33.0106 -0.753249 33.0186C-0.770312 33.0407 -0.787484 33.0625 -0.802906 33.0856C-0.807718 33.0928 -0.811546 33.1002 -0.81614 33.1073C-0.832109 33.1323 -0.84775 33.1576 -0.861968 33.1838C-0.864375 33.1888 -0.866781 33.1941 -0.869297 33.1992C-0.884062 33.2278 -0.8985 33.257 -0.91075 33.2871C-0.91239 33.2905 -0.913265 33.294 -0.914578 33.2974C-0.927265 33.3291 -0.939187 33.3614 -0.94925 33.3943C-0.950453 33.398 -0.951109 33.402 -0.952203 33.4059C-0.961719 33.4384 -0.970359 33.4712 -0.977031 33.5048C-0.978891 33.5138 -0.979766 33.5233 -0.981297 33.5324C-0.986328 33.5607 -0.991141 33.5889 -0.993984 33.618C-0.997922 33.6565 -1 33.6953 -1 33.7345C-1 33.7736 -0.997922 33.8124 -0.994094 33.8509C-0.991141 33.8799 -0.986437 33.9081 -0.981406 33.9364C-0.979766 33.9456 -0.978891 33.955 -0.977141 33.964C-0.970469 33.9976 -0.961828 34.0304 -0.952312 34.063C-0.951109 34.0667 -0.950453 34.0707 -0.949359 34.0746C-0.939297 34.1075 -0.927375 34.1397 -0.914687 34.1713C-0.913265 34.1747 -0.91239 34.1783 -0.910859 34.1818C-0.898609 34.2117 -0.8845 34.2406 -0.869625 34.2691C-0.86689 34.2744 -0.864812 34.2799 -0.861968 34.2853C-0.848297 34.3111 -0.832765 34.3357 -0.817015 34.3603C-0.812203 34.3679 -0.808156 34.3761 -0.803125 34.3835C-0.788359 34.4055 -0.771843 34.4263 -0.755765 34.4473C-0.748765 34.4564 -0.742312 34.4663 -0.734765 34.4753C-0.715843 34.4982 -0.695609 34.52 -0.674827 34.5413C-0.66914 34.5472 -0.664327 34.5538 -0.658421 34.5595L20.4489 55.6668H15.333C14.6887 55.6668 14.1663 56.1892 14.1663 56.8335C14.1663 57.4777 14.6887 58.0002 15.333 58.0002H38.6663C39.3107 58.0002 39.833 57.4777 39.833 56.8335C39.833 56.1892 39.3107 55.6668 38.6663 55.6668H26.0825L54.6586 27.0907C54.6595 27.0897 54.6604 27.0885 54.6616 27.0875C54.6874 27.0616 54.712 27.0346 54.735 27.0064C54.7419 26.9983 54.7472 26.9895 54.7539 26.9814C54.7709 26.9594 54.7878 26.9377 54.8031 26.9147C54.8082 26.9074 54.8122 26.8996 54.8168 26.8923C54.8328 26.8676 54.8483 26.8425 54.8622 26.8166C54.8649 26.8116 54.867 26.8063 54.8696 26.8012C54.8844 26.7725 54.8985 26.7433 54.9111 26.7132C54.9125 26.7098 54.9136 26.7063 54.9149 26.7029C54.9276 26.6712 54.9395 26.639 54.9496 26.606C54.9508 26.6022 54.9514 26.5983 54.9525 26.5943C54.9621 26.5618 54.9707 26.5291 54.9774 26.4957C54.9794 26.4859 54.9801 26.4761 54.982 26.4663C54.9868 26.4385 54.9915 26.4107 54.9944 26.3824C54.9983 26.3439 55.0001 26.305 55.0001 26.2659C55 26.2266 54.9981 26.1878 54.9943 26.1493ZM2.98334 32.5678L29.5676 5.98366V32.5679H2.98334V32.5678ZM39.1345 27.4324H51.0169L23.2658 55.1835L2.98334 34.9011H22.0991V45.243C22.0991 45.8874 22.6217 46.4097 23.2658 46.4097C23.9101 46.4097 24.4325 45.8874 24.4325 45.243V34.9011H30.7345C31.3787 34.9011 31.9012 34.3788 31.9012 33.7343V5.98323L51.0169 25.0991H39.1345C38.4904 25.0991 37.9678 25.6214 37.9678 26.2658C37.9678 26.9101 38.4903 27.4324 39.1345 27.4324Z" fill="#10C4BF"/>
<path d="M35.4019 25.0996H34.7019C34.0578 25.0996 33.5352 25.622 33.5352 26.2663C33.5352 26.9107 34.0578 27.433 34.7019 27.433H35.4019C36.0462 27.433 36.5686 26.9107 36.5686 26.2663C36.5686 25.622 36.0462 25.0996 35.4019 25.0996Z" fill="#10C4BF"/>
<path d="M23.2663 47.8105C22.6222 47.8105 22.0996 48.333 22.0996 48.9773V49.6775C22.0996 50.3218 22.6222 50.8442 23.2663 50.8442C23.9106 50.8442 24.433 50.3219 24.433 49.6775V48.9773C24.433 48.3328 23.9108 47.8105 23.2663 47.8105Z" fill="#10C4BF"/>
</g>
</g>
<defs>
<linearGradient id="paint0_linear_21_4432" x1="30" y1="0" x2="30" y2="60" gradientUnits="userSpaceOnUse">
<stop stop-color="white"/>
<stop offset="1" stop-color="white" stop-opacity="0"/>
</linearGradient>
<clipPath id="clip0_21_4432">
<rect width="60" height="60" fill="white"/>
</clipPath>
<clipPath id="clip1_21_4432">
<rect width="56" height="56" fill="white" transform="translate(-1 2)"/>
</clipPath>
</defs>
</svg>
