<svg width="107" height="20" viewBox="0 0 107 20" fill="none" xmlns="http://www.w3.org/2000/svg">
<path d="M0 0.00585938H20.0625V19.9952H0V0.00585938ZM21.7344 0.00585938H41.7969V19.9952H21.7344V0.00585938ZM43.4688 0.00585938H63.5312V19.9952H43.4688V0.00585938ZM65.2031 0.00585938H85.2656V19.9952H65.2031V0.00585938ZM86.9375 0.00585938H107V19.9952H86.9375V0.00585938Z" fill="#00B67A"/>
<path d="M10.0316 13.4777L13.0828 12.7073L14.3576 16.6218L10.0316 13.4777ZM17.0535 8.41788H11.6826L10.0316 3.37891L8.38066 8.41788H3.00977L7.35664 11.5412L5.70566 16.5802L10.0525 13.4569L12.7275 11.5412L17.0535 8.41788ZM31.766 13.4777L34.8172 12.7073L36.092 16.6218L31.766 13.4777ZM38.7879 8.41788H33.417L31.766 3.37891L30.115 8.41788H24.7441L29.091 11.5412L27.44 16.5802L31.7869 13.4569L34.4619 11.5412L38.7879 8.41788ZM53.5004 13.4777L56.5516 12.7073L57.8264 16.6218L53.5004 13.4777ZM60.5223 8.41788H55.1514L53.5004 3.37891L51.8494 8.41788H46.4785L50.8254 11.5412L49.1744 16.5802L53.5213 13.4569L56.1963 11.5412L60.5223 8.41788ZM75.2348 13.4777L78.2859 12.7073L79.5607 16.6218L75.2348 13.4777ZM82.2566 8.41788H76.8857L75.2348 3.37891L73.5838 8.41788H68.2129L72.5598 11.5412L70.9088 16.5802L75.2557 13.4569L77.9307 11.5412L82.2566 8.41788ZM96.9691 13.4777L100.02 12.7073L101.295 16.6218L96.9691 13.4777ZM103.991 8.41788H98.6201L96.9691 3.37891L95.3182 8.41788H89.9473L94.2941 11.5412L92.6432 16.5802L96.99 13.4569L99.665 11.5412L103.991 8.41788Z" fill="white"/>
</svg>
