<svg width="37" height="37" viewBox="0 0 37 37" fill="none" xmlns="http://www.w3.org/2000/svg">
<path d="M16.9844 33.8732V19.7133C16.9844 19.5457 17.1201 19.41 17.2877 19.41H36.6928C36.8603 19.41 36.996 19.5457 36.996 19.7133V36.6967C36.996 36.7848 36.9578 36.8685 36.8912 36.9261C36.8247 36.9838 36.7366 37.0095 36.6491 36.9969L17.244 34.1733C17.0949 34.1516 16.9844 34.0238 16.9844 33.8732Z" fill="white"/>
<path d="M14.8613 3.03879C14.9342 3.03879 15.0052 3.06499 15.0608 3.11351C15.1268 3.17114 15.1646 3.25448 15.1646 3.34206V17.2866C15.1646 17.4541 15.0289 17.5898 14.8613 17.5898H0.314997C0.234568 17.5898 0.157414 17.5579 0.100519 17.501C0.0436237 17.4441 0.0117188 17.367 0.0117188 17.2866L0.0124466 5.33557C0.0124466 5.18393 0.124417 5.05571 0.274479 5.03508L14.8201 3.04145C14.8338 3.03976 14.8476 3.03879 14.8613 3.03879Z" fill="white"/>
<path d="M0.316502 19.4102H14.8608C15.0283 19.4102 15.1641 19.5459 15.1641 19.7135V33.5209C15.1641 33.6085 15.1262 33.6917 15.0603 33.7493C14.9945 33.8069 14.9074 33.8334 14.82 33.8214L0.262518 31.8445C0.111971 31.824 -0.000121213 31.6955 9.83723e-08 31.5436L0.013223 19.7132C0.0134657 19.5458 0.149213 19.4102 0.316502 19.4102Z" fill="white"/>
<path d="M36.6928 -0.000310898C36.7654 -0.000310898 36.8362 0.0257721 36.8917 0.0740547C36.9579 0.131678 36.996 0.215137 36.996 0.302967L37.0009 17.2866C37.0009 17.367 36.969 17.4441 36.9121 17.501C36.8552 17.5579 36.778 17.5898 36.6976 17.5898H17.2877C17.1201 17.5898 16.9844 17.4541 16.9844 17.2866V3.03296C16.9844 2.88181 17.0957 2.7537 17.2453 2.73259L36.6504 0.00259972C36.6646 0.000658035 36.6787 -0.000310898 36.6928 -0.000310898Z" fill="white"/>
</svg>
